<svg width="51" height="51" viewBox="0 0 51 51" fill="none" xmlns="http://www.w3.org/2000/svg">
<path d="M18.9898 45.8454H31.4898C41.9065 45.8454 46.0732 41.6787 46.0732 31.262V18.762C46.0732 8.34538 41.9065 4.17871 31.4898 4.17871H18.9898C8.57316 4.17871 4.40649 8.34538 4.40649 18.762V31.262C4.40649 41.6787 8.57316 45.8454 18.9898 45.8454Z" stroke="#A1D283" stroke-width="2.5" stroke-linecap="round" stroke-linejoin="round"/>
<path d="M18.9897 20.8451C21.2909 20.8451 23.1563 18.9796 23.1563 16.6784C23.1563 14.3772 21.2909 12.5117 18.9897 12.5117C16.6885 12.5117 14.823 14.3772 14.823 16.6784C14.823 18.9796 16.6885 20.8451 18.9897 20.8451Z" stroke="#A1D283" stroke-width="2.5" stroke-linecap="round" stroke-linejoin="round"/>
<path d="M5.802 39.4902L16.0728 32.5944C17.7187 31.4902 20.0937 31.6152 21.5728 32.8861L22.2603 33.4902C23.8853 34.8861 26.5103 34.8861 28.1353 33.4902L36.802 26.0527C38.427 24.6569 41.052 24.6569 42.677 26.0527L46.0728 28.9694" stroke="#A1D283" stroke-width="2.5" stroke-linecap="round" stroke-linejoin="round"/>
</svg>
